# xmcd
#
# Track frame offsets:
#	150
#	21068
#	39350
#	65689
#	84602
#	116117
#	137047
#	162369
#	184918
#	203121
#	229975
#	247084
#	268178
#	305686
#	321196
#	337301
#	355364
#
# Disc length: 4902 seconds
#
# Revision: 0
# Processed by: cddbd v1.5.2PL0 Copyright (c) Steve Scherf et al.
# Submitted via: EasyCDDAExtractor 10.0.2.1
#
DISCID=0e132411
DTITLE=Mike Bloomfield - Celebrating The Blues
DYEAR=2006
DGENRE=Blues
TTITLE0=Women Lovin' Each Other
TTITLE1=Don't You Lie To Me
TTITLE2=Knockin' Myself Out
TTITLE3=Eyesight To The Blind
TTITLE4=Between A Hard Place And The Ground
TTITLE5=Cherry Red
TTITLE6=Uncle Bob's Barrelhouse Blues
TTITLE7=Wee Wee Hours
TTITLE8=Vamp In C
TTITLE9=Blues In B Flat
TTITLE10=Jockey Blues
TTITLE11=Junko Partner
TTITLE12=Women Lovin Each Other - (alternate take)
TTITLE13=Don't Lie To Me - (alternate take)
TTITLE14=Kansas City
TTITLE15=Darktown Strutters Ball - Mop Mop - Call Me A Dog
TTITLE16=One Of These Days
EXTD=
EXTT0=
EXTT1=
EXTT2=
EXTT3=
EXTT4=
EXTT5=
EXTT6=
EXTT7=
EXTT8=
EXTT9=
EXTT10=
EXTT11=
EXTT12=
EXTT13=
EXTT14=
EXTT15=
EXTT16=
PLAYORDER=
